<?xml version="1.0" encoding="utf-8"?>
<!-- Generator: Adobe Illustrator 18.1.1, SVG Export Plug-In . SVG Version: 6.00 Build 0)  -->
<svg version="1.1" id="st-light-off" xmlns="http://www.w3.org/2000/svg" xmlns:xlink="http://www.w3.org/1999/xlink" x="0px" y="0px" width="60pt" height="60pt"
	 viewBox="-449 255 60 60" style="enable-background:new -449 255 60 60;" xml:space="preserve">
<g>
	<polygon fill="none" points="-435.3,258.5 -440.3,258.5 -444.1,311 -431.4,311 	"/>
	<polygon fill="none" points="-397.7,258.5 -402.7,258.5 -406.5,311 -393.8,311 	"/>
</g>
<rect x="-421" y="299.8" fill="#434A54" width="4.6" height="10"/>
<g>
	<rect x="-441.4" y="252.4" fill="#434A54" width="8" height="3.8"/>
	<rect x="-403.9" y="252.4" fill="#434A54" width="7.5" height="3.8"/>
</g>
<path d="M-411.5,308.5h-3.8v-8.8c0-0.7-0.6-1.2-1.2-1.2h-1.3v-33.8c0-2.8,0.4-5,1.2-6.7c0.7-1.4,1.6-2.4,2.9-3.1
	c2.2-1.2,5.2-1.4,8.5-1.4v2.5c0,0.7,0.6,1.3,1.2,1.3h7.5c0.7,0,1.3-0.6,1.3-1.3v-3.7c0-0.7-0.6-1.3-1.3-1.3h-7.5
	c-3.8,0-7.8,0-10.9,1.7c-1.8,1-3.2,2.6-4.1,4.6c-0.9-2.1-2.2-3.6-4.1-4.6c-3.1-1.7-7.1-1.7-10.9-1.7h-7.5c-0.7,0-1.2,0.6-1.2,1.3
	v3.7c0,0.7,0.6,1.3,1.2,1.3h7.5c0.7,0,1.3-0.6,1.3-1.3v-2.5c3.2,0,6.2,0.2,8.5,1.4c2.8,1.5,4,4.7,4,9.8v33.8h-1.3
	c-0.7,0-1.3,0.6-1.3,1.2v8.8h-3.7c-0.7,0-1.2,0.6-1.2,1.3s0.6,1.2,1.2,1.2h5h5h5c0.7,0,1.3-0.6,1.3-1.2S-410.8,308.5-411.5,308.5z
	 M-397.7,254.8h-5v-1.2h5V254.8L-397.7,254.8z M-435.2,254.8h-5v-1.2h5V254.8z M-420.2,308.5V301h2.5v7.5H-420.2L-420.2,308.5z"/>
<path fill="none" d="M-402.7,258.5c-0.7-0.1-1.3,0.5-1.3,1.2l-3.7,50c-0.1,0.7,0.5,1.3,1.2,1.3c0,0,0.1,0,0.1,0
	c0.6,0,1.2-0.5,1.2-1.2l3.8-50C-401.5,259.2-402,258.6-402.7,258.5z"/>
<path fill="none" d="M-392.8,309.7l-3.8-50c-0.1-0.7-0.7-1.2-1.3-1.2c-0.7,0.1-1.2,0.7-1.2,1.3l3.8,50c0,0.7,0.6,1.2,1.2,1.2
	c0,0,0.1,0,0.1,0C-393.2,310.9-392.7,310.3-392.8,309.7z"/>
<path fill="none" d="M-440.2,258.5c-0.7-0.1-1.3,0.5-1.3,1.2l-3.8,50c-0.1,0.7,0.5,1.3,1.2,1.3c0,0,0.1,0,0.1,0
	c0.6,0,1.2-0.5,1.2-1.2l3.8-50C-439,259.2-439.5,258.6-440.2,258.5z"/>
<path fill="none" d="M-434,259.7c-0.1-0.7-0.7-1.2-1.3-1.2c-0.7,0.1-1.2,0.7-1.2,1.3l3.8,50c0,0.7,0.6,1.2,1.2,1.2c0,0,0.1,0,0.1,0
	c0.7-0.1,1.2-0.7,1.2-1.3L-434,259.7z"/>
</svg>
